<?xml version="1.0" standalone="no"?>
<!DOCTYPE svg PUBLIC "-//W3C//DTD SVG 20010904//EN"
 "http://www.w3.org/TR/2001/REC-SVG-20010904/DTD/svg10.dtd">
<svg version="1.0" xmlns="http://www.w3.org/2000/svg"
 width="77.000000pt" height="23.000000pt" viewBox="0 0 77.000000 23.000000"
 preserveAspectRatio="xMidYMid meet">
<metadata>
Created by potrace 1.16, written by Peter Selinger 2001-2019
</metadata>
<g transform="translate(0.000000,23.000000) scale(0.100000,-0.100000)"
fill="#000000" stroke="none">
<path d="M286 158 c-9 -12 -16 -30 -16 -39 0 -24 47 -59 68 -52 27 10 52 35
52 52 0 14 2 14 9 2 7 -10 5 -18 -6 -26 -13 -10 -13 -12 1 -24 12 -10 20 -10
29 -3 8 7 18 7 27 2 8 -5 18 -6 24 -3 5 4 32 5 59 4 41 -2 52 2 72 23 13 14
25 33 28 43 3 10 5 -1 6 -24 1 -31 5 -43 16 -43 18 0 21 8 29 67 l6 41 -119 1
c-102 1 -120 -1 -125 -15 -4 -9 1 -27 9 -40 12 -18 12 -24 3 -24 -16 0 -39 48
-27 56 5 3 9 9 9 15 0 14 -48 11 -53 -3 -4 -10 -7 -10 -18 0 -21 20 -66 15
-83 -10z"/>
</g>
</svg>
