<?xml version="1.0" standalone="no"?>
<!DOCTYPE svg PUBLIC "-//W3C//DTD SVG 20010904//EN"
 "http://www.w3.org/TR/2001/REC-SVG-20010904/DTD/svg10.dtd">
<svg version="1.0" xmlns="http://www.w3.org/2000/svg"
 width="77.000000pt" height="23.000000pt" viewBox="0 0 77.000000 23.000000"
 preserveAspectRatio="xMidYMid meet">

<g transform="translate(0.000000,23.000000) scale(0.100000,-0.100000)"
fill="#000000" stroke="none">
<path d="M302 164 c-39 -27 -19 -94 28 -94 47 0 67 67 28 94 -12 9 -25 16 -28
16 -3 0 -16 -7 -28 -16z m46 -13 c8 -4 12 -19 10 -32 -2 -18 -9 -24 -28 -24
-28 0 -39 27 -20 50 14 17 20 18 38 6z"/>
<path d="M400 165 c-10 -12 -9 -20 4 -40 20 -30 20 -35 1 -35 -8 0 -15 -5 -15
-11 0 -18 45 -5 48 14 2 10 -5 28 -15 39 -13 15 -15 22 -5 25 14 5 17 23 3 23
-5 0 -14 -7 -21 -15z"/>
<path d="M463 173 c-18 -7 -16 -38 2 -53 8 -7 15 -16 15 -21 0 -5 -7 -9 -15
-9 -8 0 -15 -4 -15 -10 0 -15 26 -12 40 5 10 12 9 20 -5 42 -12 18 -14 28 -7
31 7 2 12 8 12 13 0 10 -8 10 -27 2z"/>
<path d="M517 173 c-4 -3 -7 -28 -7 -55 0 -41 3 -48 20 -48 11 0 20 5 20 10 0
6 -4 10 -10 10 -14 0 -12 27 3 33 10 4 10 6 0 6 -15 1 -18 31 -3 31 6 0 10 5
10 10 0 11 -23 14 -33 3z"/>
<path d="M570 124 c0 -34 4 -53 10 -49 6 3 10 12 10 19 0 8 9 16 20 19 26 7
26 43 1 57 -35 18 -41 12 -41 -46z m40 22 c0 -8 -4 -18 -10 -21 -5 -3 -10 3
-10 14 0 12 5 21 10 21 6 0 10 -6 10 -14z"/>
<path d="M648 128 c2 -29 6 -55 8 -57 8 -8 12 5 16 57 4 44 3 52 -12 52 -15 0
-16 -8 -12 -52z"/>
<path d="M110 146 c0 -11 10 -16 32 -16 34 0 29 13 -9 25 -17 5 -23 2 -23 -9z"/>
<path d="M183 143 c-3 -10 -9 -22 -12 -28 -3 -5 5 -3 18 5 24 16 29 32 12 38
-6 2 -14 -5 -18 -15z"/>
<path d="M150 92 c0 -17 4 -32 9 -32 19 0 22 20 7 42 -16 22 -16 22 -16 -10z"/>
</g>
</svg>
